<?xml version="1.0" encoding="UTF-8"?>
<svg xmlns="http://www.w3.org/2000/svg" width="1170" height="2532" viewBox="0 0 390 844">
  <rect x="0" y="0" width="390" height="844" rx="0" fill="#f7faf8" stroke="none" />
  
    <g transform="translate(20 20) scale(0.76)">
      <rect x="0" y="0" width="42" height="42" rx="8" fill="#17211f" stroke="none" />
      <path d="M14 7h15c2 0 4 2 4 4v20c0 2-2 4-4 4H14c-2 0-4-2-4-4V11c0-2 2-4 4-4Z" fill="#ffffff"/>
      <rect x="22" y="13" width="8" height="2.6" rx="1.3" fill="#f2b84b"/>
      <rect x="27.4" y="13" width="2.6" height="8" rx="1.3" fill="#f2b84b"/>
      <rect x="14" y="19" width="14" height="3" rx="1.5" fill="#1f8a5f"/>
      <path d="M28 16.5 34 20.5 28 24.5Z" fill="#1f8a5f"/>
      <rect x="15" y="27" width="14" height="3" rx="1.5" fill="#2f74d0"/>
      <path d="M15 24.5 9 28.5 15 32.5Z" fill="#2f74d0"/>
      <circle cx="21" cy="25" r="2.4" fill="#d94f4f"/>
    </g>
  <text x="58" y="48" fill="#17211f" font-family="Inter, ui-sans-serif, system-ui, -apple-system, BlinkMacSystemFont, Segoe UI, sans-serif" font-size="15" font-weight="900" letter-spacing="0" >Collection</text>
  
      <rect x="304" y="20" width="66" height="52" rx="8" fill="#ffffff" stroke="#d8e1dd" /><text x="337" y="52" fill="#17211f" font-family="Inter, ui-sans-serif, system-ui, -apple-system, BlinkMacSystemFont, Segoe UI, sans-serif" font-size="15" font-weight="850" letter-spacing="0" text-anchor="middle">Add</text>
      <rect x="20" y="96" width="106" height="74" rx="8" fill="#ffffff" stroke="#d8e1dd" />
      <rect x="142" y="96" width="106" height="74" rx="8" fill="#ffffff" stroke="#d8e1dd" />
      <rect x="264" y="96" width="106" height="74" rx="8" fill="#ffffff" stroke="#d8e1dd" />
      <text x="36" y="130" fill="#17211f" font-family="Inter, ui-sans-serif, system-ui, -apple-system, BlinkMacSystemFont, Segoe UI, sans-serif" font-size="24" font-weight="900" letter-spacing="0" >42</text>
      <text x="158" y="130" fill="#17211f" font-family="Inter, ui-sans-serif, system-ui, -apple-system, BlinkMacSystemFont, Segoe UI, sans-serif" font-size="24" font-weight="900" letter-spacing="0" >31</text>
      <text x="280" y="130" fill="#17211f" font-family="Inter, ui-sans-serif, system-ui, -apple-system, BlinkMacSystemFont, Segoe UI, sans-serif" font-size="24" font-weight="900" letter-spacing="0" >8</text>
      <text x="36" y="154" fill="#60706b" font-family="Inter, ui-sans-serif, system-ui, -apple-system, BlinkMacSystemFont, Segoe UI, sans-serif" font-size="12" font-weight="850" letter-spacing="0" >scans</text>
      <text x="158" y="154" fill="#60706b" font-family="Inter, ui-sans-serif, system-ui, -apple-system, BlinkMacSystemFont, Segoe UI, sans-serif" font-size="12" font-weight="850" letter-spacing="0" >unique</text>
      <text x="280" y="154" fill="#60706b" font-family="Inter, ui-sans-serif, system-ui, -apple-system, BlinkMacSystemFont, Segoe UI, sans-serif" font-size="12" font-weight="850" letter-spacing="0" >dupes</text>
      
    <rect x="20" y="212" width="350" height="66" rx="8" fill="#ffffff" stroke="#d8e1dd" />
    <rect x="32" y="222" width="42" height="46" rx="6" fill="#fbfdfc" stroke="#d8e1dd" />
    <text x="88" y="243" fill="#17211f" font-family="Inter, ui-sans-serif, system-ui, -apple-system, BlinkMacSystemFont, Segoe UI, sans-serif" font-size="19" font-weight="950" letter-spacing="0" >ARG07</text>
    <text x="88" y="264" fill="#60706b" font-family="Inter, ui-sans-serif, system-ui, -apple-system, BlinkMacSystemFont, Segoe UI, sans-serif" font-size="11" font-weight="750" letter-spacing="0" >OCR, today 18:12</text>
    <rect x="320" y="230" width="44" height="30" rx="15" fill="#e6f3ed" stroke="none" />
    <text x="342" y="250" fill="#12613f" font-family="Inter, ui-sans-serif, system-ui, -apple-system, BlinkMacSystemFont, Segoe UI, sans-serif" font-size="12" font-weight="850" letter-spacing="0" text-anchor="middle">x2</text>
  
      
    <rect x="20" y="290" width="350" height="66" rx="8" fill="#ffffff" stroke="#d8e1dd" />
    <rect x="32" y="300" width="42" height="46" rx="6" fill="#fbfdfc" stroke="#d8e1dd" />
    <text x="88" y="321" fill="#17211f" font-family="Inter, ui-sans-serif, system-ui, -apple-system, BlinkMacSystemFont, Segoe UI, sans-serif" font-size="19" font-weight="950" letter-spacing="0" >USA13</text>
    <text x="88" y="342" fill="#60706b" font-family="Inter, ui-sans-serif, system-ui, -apple-system, BlinkMacSystemFont, Segoe UI, sans-serif" font-size="11" font-weight="750" letter-spacing="0" >OCR, today 18:10</text>
    <rect x="320" y="308" width="44" height="30" rx="15" fill="#e6f3ed" stroke="none" />
    <text x="342" y="328" fill="#12613f" font-family="Inter, ui-sans-serif, system-ui, -apple-system, BlinkMacSystemFont, Segoe UI, sans-serif" font-size="12" font-weight="850" letter-spacing="0" text-anchor="middle">x1</text>
  
      
    <rect x="20" y="368" width="350" height="66" rx="8" fill="#ffffff" stroke="#d8e1dd" />
    <rect x="32" y="378" width="42" height="46" rx="6" fill="#fbfdfc" stroke="#d8e1dd" />
    <text x="88" y="399" fill="#17211f" font-family="Inter, ui-sans-serif, system-ui, -apple-system, BlinkMacSystemFont, Segoe UI, sans-serif" font-size="19" font-weight="950" letter-spacing="0" >FWC04</text>
    <text x="88" y="420" fill="#60706b" font-family="Inter, ui-sans-serif, system-ui, -apple-system, BlinkMacSystemFont, Segoe UI, sans-serif" font-size="11" font-weight="750" letter-spacing="0" >Manual, today 18:08</text>
    <rect x="320" y="386" width="44" height="30" rx="15" fill="#fff2cc" stroke="none" />
    <text x="342" y="406" fill="#735000" font-family="Inter, ui-sans-serif, system-ui, -apple-system, BlinkMacSystemFont, Segoe UI, sans-serif" font-size="12" font-weight="850" letter-spacing="0" text-anchor="middle">edit</text>
  
      <rect x="20" y="700" width="166" height="52" rx="8" fill="#1f8a5f" stroke="#1f8a5f" /><text x="103" y="732" fill="#ffffff" font-family="Inter, ui-sans-serif, system-ui, -apple-system, BlinkMacSystemFont, Segoe UI, sans-serif" font-size="15" font-weight="850" letter-spacing="0" text-anchor="middle">Scan more</text>
      <rect x="204" y="700" width="166" height="52" rx="8" fill="#ffffff" stroke="#d8e1dd" /><text x="287" y="732" fill="#17211f" font-family="Inter, ui-sans-serif, system-ui, -apple-system, BlinkMacSystemFont, Segoe UI, sans-serif" font-size="15" font-weight="850" letter-spacing="0" text-anchor="middle">Export</text>
      
</svg>