<svg xmlns="http://www.w3.org/2000/svg" width="960" height="540" viewBox="0 0 960 540" role="img" aria-labelledby="title desc">
  <title id="title">Album batch control reference</title>
  <desc id="desc">Team card with All and Clear pill controls and owned sticker chips.</desc>
  <rect width="960" height="540" rx="0" fill="#f5f9fc"/>
  <rect x="120" y="96" width="720" height="348" rx="8" fill="#ffffff" stroke="#dce6ef" stroke-width="3"/>
  <rect x="120" y="96" width="720" height="76" rx="8" fill="#eef6fb" stroke="#dce6ef" stroke-width="3"/>
  <text x="152" y="143" fill="#121a2f" font-family="ui-sans-serif, system-ui, sans-serif" font-size="28" font-weight="900">🇦🇷 ARG · Argentina</text>
  <text x="616" y="143" fill="#5c6780" font-family="ui-sans-serif, system-ui, sans-serif" font-size="22" font-weight="800">18 / 20</text>
  <rect x="724" y="116" width="70" height="32" rx="16" fill="#ffffff" stroke="#dce6ef" stroke-width="2"/>
  <text x="759" y="138" text-anchor="middle" fill="#007a65" font-family="ui-sans-serif, system-ui, sans-serif" font-size="15" font-weight="900">All</text>
  <g font-family="ui-sans-serif, system-ui, sans-serif" font-size="18" font-weight="900" text-anchor="middle">
    <rect x="152" y="208" width="54" height="48" rx="6" fill="#18b394" stroke="#18b394"/>
    <text x="179" y="239" fill="#ffffff">01</text>
    <rect x="220" y="208" width="54" height="48" rx="6" fill="#18b394" stroke="#18b394"/>
    <text x="247" y="239" fill="#ffffff">02</text>
    <rect x="288" y="208" width="54" height="48" rx="6" fill="#18b394" stroke="#18b394"/>
    <text x="315" y="239" fill="#ffffff">03</text>
    <rect x="356" y="208" width="54" height="48" rx="6" fill="#eef6fb" stroke="#dce6ef"/>
    <text x="383" y="239" fill="#5c6780">04</text>
    <rect x="424" y="208" width="54" height="48" rx="6" fill="#18b394" stroke="#18b394"/>
    <text x="451" y="239" fill="#ffffff">05</text>
    <rect x="492" y="208" width="54" height="48" rx="6" fill="#18b394" stroke="#18b394"/>
    <text x="519" y="239" fill="#ffffff">06</text>
    <rect x="560" y="208" width="54" height="48" rx="6" fill="#eef6fb" stroke="#dce6ef"/>
    <text x="587" y="239" fill="#5c6780">07</text>
    <rect x="628" y="208" width="54" height="48" rx="6" fill="#18b394" stroke="#18b394"/>
    <text x="655" y="239" fill="#ffffff">08</text>
    <rect x="696" y="208" width="54" height="48" rx="6" fill="#18b394" stroke="#18b394"/>
    <text x="723" y="239" fill="#ffffff">09</text>
    <rect x="764" y="208" width="54" height="48" rx="6" fill="#18b394" stroke="#18b394"/>
    <text x="791" y="239" fill="#ffffff">10</text>
  </g>
  <rect x="152" y="328" width="142" height="44" rx="22" fill="#eef6fb" stroke="#dce6ef" stroke-width="2"/>
  <text x="223" y="357" text-anchor="middle" fill="#5c6780" font-family="ui-sans-serif, system-ui, sans-serif" font-size="17" font-weight="900">Clear team</text>
  <text x="320" y="357" fill="#5c6780" font-family="ui-sans-serif, system-ui, sans-serif" font-size="17" font-weight="700">appears when all stickers are owned</text>
</svg>
